REM DIRINDEX 1\2,1\3,1\4,1\5,1\6,1\7,1\8
REM DIRNAME cjc152,folder01,folder02,folder03,folder04,folder05,folder06,folder07
TITLE ""
FILE "48_Ch10_AtNight_Tweets.mp3" MP3
  TRACK 01 AUDIO
    TITLE "0:"
    INDEX 01 00:00:00
  TRACK 02 AUDIO
    TITLE "8:cjc152_2644"
    INDEX 01 00:00:33
  TRACK 03 AUDIO
    TITLE "0:"
    INDEX 01 00:03:10
  TRACK 04 AUDIO
    TITLE "8:cjc152_2645"
    INDEX 01 00:03:70
  TRACK 05 AUDIO
    TITLE "0:"
    INDEX 01 00:05:40
  TRACK 06 AUDIO
    TITLE "4:cjc152_2646"
    INDEX 01 00:06:33
  TRACK 07 AUDIO
    TITLE "0:"
    INDEX 01 00:08:44
  TRACK 08 AUDIO
    TITLE "4:cjc152_2647"
    INDEX 01 00:09:40
  TRACK 09 AUDIO
    TITLE "0:"
    INDEX 01 00:11:39
  TRACK 10 AUDIO
    TITLE "4:cjc152_2648"
    INDEX 01 00:13:33
  TRACK 11 AUDIO
    TITLE "0:"
    INDEX 01 00:16:14
  TRACK 12 AUDIO
    TITLE "4:cjc152_2649"
    INDEX 01 00:17:08
  TRACK 13 AUDIO
    TITLE "0:"
    INDEX 01 00:20:30
  TRACK 14 AUDIO
    TITLE "4:cjc152_2650"
    INDEX 01 00:22:23
  TRACK 15 AUDIO
    TITLE "0:"
    INDEX 01 00:25:68
  TRACK 16 AUDIO
    TITLE "4:cjc152_2651"
    INDEX 01 00:26:60
  TRACK 17 AUDIO
    TITLE "0:"
    INDEX 01 00:30:73
  TRACK 18 AUDIO
    TITLE "4:cjc152_2652"
    INDEX 01 00:32:64
  TRACK 19 AUDIO
    TITLE "0:"
    INDEX 01 00:37:69
  TRACK 20 AUDIO
    TITLE "4:cjc152_2653"
    INDEX 01 00:38:61
  TRACK 21 AUDIO
    TITLE "0:"
    INDEX 01 00:43:19
  TRACK 22 AUDIO
    TITLE "4:cjc152_2654"
    INDEX 01 00:45:12
  TRACK 23 AUDIO
    TITLE "0:"
    INDEX 01 00:49:10
  TRACK 24 AUDIO
    TITLE "4:cjc152_2655"
    INDEX 01 00:50:03
  TRACK 25 AUDIO
    TITLE "0:"
    INDEX 01 00:55:57
  TRACK 26 AUDIO
    TITLE "4:cjc152_2656"
    INDEX 01 00:57:50
  TRACK 27 AUDIO
    TITLE "0:"
    INDEX 01 01:00:29
  TRACK 28 AUDIO
    TITLE "4:cjc152_2657"
    INDEX 01 01:01:21
  TRACK 29 AUDIO
    TITLE "0:"
    INDEX 01 01:04:66
  TRACK 30 AUDIO
    TITLE "4:cjc152_2658"
    INDEX 01 01:06:59
  TRACK 31 AUDIO
    TITLE "0:"
    INDEX 01 01:09:46
  TRACK 32 AUDIO
    TITLE "4:cjc152_2659"
    INDEX 01 01:10:39
  TRACK 33 AUDIO
    TITLE "0:"
    INDEX 01 01:13:14
  TRACK 34 AUDIO
    TITLE "4:cjc152_2660"
    INDEX 01 01:15:07
  TRACK 35 AUDIO
    TITLE "0:"
    INDEX 01 01:18:68
  TRACK 36 AUDIO
    TITLE "4:cjc152_2661"
    INDEX 01 01:19:62
  TRACK 37 AUDIO
    TITLE "0:"
    INDEX 01 01:24:41
  TRACK 38 AUDIO
    TITLE "4:cjc152_2662"
    INDEX 01 01:26:25
  TRACK 39 AUDIO
    TITLE "0:"
    INDEX 01 01:30:50
  TRACK 40 AUDIO
    TITLE "4:cjc152_2663"
    INDEX 01 01:31:41
  TRACK 41 AUDIO
    TITLE "0:"
    INDEX 01 01:36:01
  TRACK 42 AUDIO
    TITLE "4:cjc152_2664"
    INDEX 01 01:37:68
  TRACK 43 AUDIO
    TITLE "0:"
    INDEX 01 01:41:46
  TRACK 44 AUDIO
    TITLE "4:cjc152_2665"
    INDEX 01 01:42:35
  TRACK 45 AUDIO
    TITLE "0:"
    INDEX 01 01:45:49
  TRACK 46 AUDIO
    TITLE "4:cjc152_2666"
    INDEX 01 01:47:42
  TRACK 47 AUDIO
    TITLE "0:"
    INDEX 01 01:51:25
  TRACK 48 AUDIO
    TITLE "4:cjc152_2667"
    INDEX 01 01:52:16
  TRACK 49 AUDIO
    TITLE "0:"
    INDEX 01 01:56:22
  TRACK 50 AUDIO
    TITLE "4:cjc152_2668"
    INDEX 01 01:58:15
  TRACK 51 AUDIO
    TITLE "0:"
    INDEX 01 02:00:71
  TRACK 52 AUDIO
    TITLE "4:cjc152_2669"
    INDEX 01 02:01:60
  TRACK 53 AUDIO
    TITLE "0:"
    INDEX 01 02:05:25
  TRACK 54 AUDIO
    TITLE "4:cjc152_2670"
    INDEX 01 02:07:18
  TRACK 55 AUDIO
    TITLE "0:"
    INDEX 01 02:11:19
  TRACK 56 AUDIO
    TITLE "4:cjc152_2671"
    INDEX 01 02:12:17
  TRACK 57 AUDIO
    TITLE "0:"
    INDEX 01 02:15:70
  TRACK 58 AUDIO
    TITLE "4:cjc152_2672"
    INDEX 01 02:17:61
  TRACK 59 AUDIO
    TITLE "0:"
    INDEX 01 02:23:19
  TRACK 60 AUDIO
    TITLE "4:cjc152_2673"
    INDEX 01 02:24:12
  TRACK 61 AUDIO
    TITLE "0:"
    INDEX 01 02:28:65
  TRACK 62 AUDIO
    TITLE "4:cjc152_2674"
    INDEX 01 02:30:56
  TRACK 63 AUDIO
    TITLE "0:"
    INDEX 01 02:34:62
  TRACK 64 AUDIO
    TITLE "4:cjc152_2675"
    INDEX 01 02:35:51
  TRACK 65 AUDIO
    TITLE "0:"
    INDEX 01 02:39:24
  TRACK 66 AUDIO
    TITLE "4:cjc152_2676"
    INDEX 01 02:41:11
  TRACK 67 AUDIO
    TITLE "0:"
    INDEX 01 02:43:25
  TRACK 68 AUDIO
    TITLE "4:cjc152_2677"
    INDEX 01 02:44:27
  TRACK 69 AUDIO
    TITLE "0:"
    INDEX 01 02:48:07
  TRACK 70 AUDIO
    TITLE "4:cjc152_2678"
    INDEX 01 02:50:23
  TRACK 71 AUDIO
    TITLE "0:"
    INDEX 01 02:54:07
  TRACK 72 AUDIO
    TITLE "4:cjc152_2679"
    INDEX 01 02:55:01
  TRACK 73 AUDIO
    TITLE "0:"
    INDEX 01 03:01:08
  TRACK 74 AUDIO
    TITLE "4:cjc152_2680"
    INDEX 01 03:03:18
  TRACK 75 AUDIO
    TITLE "0:"
    INDEX 01 03:07:39
  TRACK 76 AUDIO
    TITLE "4:cjc152_2681"
    INDEX 01 03:08:31
  TRACK 77 AUDIO
    TITLE "0:"
    INDEX 01 03:12:48
  TRACK 78 AUDIO
    TITLE "4:cjc152_2682"
    INDEX 01 03:14:42
  TRACK 79 AUDIO
    TITLE "0:"
    INDEX 01 03:17:40
  TRACK 80 AUDIO
    TITLE "4:cjc152_2683"
    INDEX 01 03:18:31
  TRACK 81 AUDIO
    TITLE "0:"
    INDEX 01 03:21:49
  TRACK 82 AUDIO
    TITLE "4:cjc152_2684"
    INDEX 01 03:23:60
  TRACK 83 AUDIO
    TITLE "0:"
    INDEX 01 03:27:52
  TRACK 84 AUDIO
    TITLE "4:cjc152_2685"
    INDEX 01 03:28:48
  TRACK 85 AUDIO
    TITLE "0:"
    INDEX 01 03:31:22
  TRACK 86 AUDIO
    TITLE "4:cjc152_2686"
    INDEX 01 03:33:15
  TRACK 87 AUDIO
    TITLE "0:"
    INDEX 01 03:37:45
  TRACK 88 AUDIO
    TITLE "4:cjc152_2687"
    INDEX 01 03:38:36
  TRACK 89 AUDIO
    TITLE "0:"
    INDEX 01 03:42:71
  TRACK 90 AUDIO
    TITLE "4:cjc152_2688"
    INDEX 01 03:44:64
  TRACK 91 AUDIO
    TITLE "0:"
    INDEX 01 03:46:63
  TRACK 92 AUDIO
    TITLE "4:cjc152_2689"
    INDEX 01 03:47:53
  TRACK 93 AUDIO
    TITLE "0:"
    INDEX 01 03:49:65
  TRACK 94 AUDIO
    TITLE "4:cjc152_2690"
    INDEX 01 03:51:56
  TRACK 95 AUDIO
    TITLE "0:"
    INDEX 01 03:55:37
  TRACK 96 AUDIO
    TITLE "4:cjc152_2691"
    INDEX 01 03:56:26
  TRACK 97 AUDIO
    TITLE "0:"
    INDEX 01 04:00:65
  TRACK 98 AUDIO
    TITLE "4:cjc152_2692"
    INDEX 01 04:02:58
  TRACK 99 AUDIO
    TITLE "0:"
    INDEX 01 04:04:57
  TRACK 100 AUDIO
    TITLE "4:cjc152_2693"
    INDEX 01 04:05:55
  TRACK 101 AUDIO
    TITLE "0:"
    INDEX 01 04:08:20
